<svg xmlns="http://www.w3.org/2000/svg" viewBox="0 0 161.88 92.97"><defs><style>.cls-1{fill:#2a2625;}.cls-2{fill:#ce8d4d;}.cls-3{fill:#debe72;}</style></defs><g id="Capa_2" data-name="Capa 2"><g id="Capa_1-2" data-name="Capa 1"><path class="cls-1" d="M87.26,75c-.53,5.49-.43,11-.67,16.49-.06,1.25-.39,1.59-1.71,1.43-1.71-.2-3.45-.24-5.18-.31-.75,0-1-.24-1-1-.43-9.53-.91-19.06-1.39-28.59L75.58,29.78q-.7-14.3-1.43-28.59c0-.68.13-.9.89-.87,4.57.17,9.14.34,13.72.44,1.18,0,1,.64,1,1.32q-.48,12.52-.94,25c0,.21,0,.42,0,.84,18.07-5.65,36.12-7.21,54.28-.09.69-5.31,1.37-10.51,2-15.7.49-3.76,1-7.52,1.42-11.29.1-.85.37-1,1.25-.84,4.38.75,8.77,1.47,13.18,2.1,1.19.17,1,.75.81,1.41-1,4.41-2,8.82-3,13.23q-3.25,14.3-6.49,28.6-3.95,17.34-7.88,34.68c-.52,2.28-1.1,4.55-1.55,6.84-.15.76-.34,1.11-1.24.94-1.7-.31-3.4-.59-5.11-.81-.9-.12-1-.52-.91-1.27q2.92-22.24,5.82-44.49c.52-4,.57-4-3.46-5.52a56.36,56.36,0,0,0-25.89-3.25,4.09,4.09,0,0,1-2.21.61,97.09,97.09,0,0,0-19,4.33c-1.32.43-2.16,1-1.9,2.44a6.91,6.91,0,0,1,0,1.87c-.74,9.24-.44,18.53-1.17,27.78-.1,1.23.22,2.47.06,3.72A2.77,2.77,0,0,1,87.26,75Z"/><path class="cls-1" d="M33.15,45.4A16.92,16.92,0,0,0,24.34,51,29.56,29.56,0,0,0,21.41,55l-8.35-9.35c0,1.81,0,3.31.07,4.8.29,10.53.57,21.05.91,31.57,0,1-.21,1.41-1.36,1.59C8.85,84.25,5,85,1.22,85.72c-.95.19-1.25.15-1.22-.87Q.59,64,1.09,43.15q.31-12,.6-24c0-.49.06-1,.12-1.83l6.91,8.72c4,5.06,8,10.1,12,15.19.67.85,1,1,1.91.18,5.22-5,11.71-6.77,18.93-5.85,3.12.4,4.55-.5,6-3,4.86-8.13,10-16.1,15.2-24.34a19.5,19.5,0,0,1,.73,4.79q3.55,30.81,7,61.64c.61,5.3,1.22,10.6,1.89,15.9.15,1.19-.1,1.66-1.53,1.49A56.84,56.84,0,0,0,65,91.79c-1.13,0-1.62-.3-1.79-1.45-.62-4.31-1.4-8.6-2.12-12.89a2.81,2.81,0,0,1-.74-1.86c-1.94-12.16-4-24.31-5.88-36.47A4.84,4.84,0,0,0,54,37.31c-.6,0-.66.48-.88.78-1.27,1.77-2.64,3.49-3.73,5.35s-2.52,2.16-4.48,1.71a24,24,0,0,0-9,0A8.23,8.23,0,0,1,33.15,45.4Z"/><path class="cls-2" d="M87.26,75c.16-5.49.29-11,.47-16.48.22-6.54.48-13.07.7-19.61,0-.66.1-1.19.91-1.46,7.37-2.45,14.85-4.46,22.71-5,1.31,10.12.59,19.93-5.47,28.8C102,68.05,95.28,72.37,87.26,75Z"/><path class="cls-3" d="M33.15,45.4a21.61,21.61,0,0,1,11.49-.71c2.24.41,3.56.06,4.68-1.87,1.39-2.38,3.15-4.58,5-7.25,2.3,14.27,4.52,28.07,6.74,41.88-11.8-1.76-20.47-7.26-24.69-18A44.5,44.5,0,0,1,33.15,45.4Z"/><path class="cls-1" d="M122.69,68.16a18.21,18.21,0,0,1-1.57,4.14,25.52,25.52,0,0,1-4.58,6.06,1.47,1.47,0,0,1-2.08.35,24.48,24.48,0,0,1-9.23-8.53c-.54-.85-.34-1.18.44-1.69,5.18-3.37,10.68-3.31,16.37-1.4C122.42,67.22,123,67.32,122.69,68.16Z"/><path class="cls-1" d="M128.67,54.11a4.54,4.54,0,0,1-4.91,4.09,4.47,4.47,0,0,1-4.44-4.53,4.65,4.65,0,0,1,5-4.2A4.53,4.53,0,0,1,128.67,54.11Z"/><path class="cls-1" d="M25,60a4.26,4.26,0,0,1,4.08,4.34,4.39,4.39,0,0,1-4.65,3.82,4.26,4.26,0,0,1-4.15-4.43A4.36,4.36,0,0,1,25,60Z"/><path class="cls-1" d="M37.76,76c-1.35-1.16-2.55-2.23-3.8-3.25-.53-.43-.6-.69,0-1.17a6.63,6.63,0,0,1,6.25-.89c.6.25.58.44.3.88C39.6,73,38.74,74.39,37.76,76Z"/><path class="cls-1" d="M101.21,59.38a3.81,3.81,0,0,1-3.59-4.24,4,4,0,0,1,4.47-3.3A3.88,3.88,0,0,1,105.77,56,4,4,0,0,1,101.21,59.38Z"/><path class="cls-1" d="M49.27,62.14a3.86,3.86,0,1,1-3.32-4A3.62,3.62,0,0,1,49.27,62.14Z"/></g></g></svg>