<svg xmlns="http://www.w3.org/2000/svg" viewBox="0 0 121.93 121.93"><defs><style>.cls-1{fill:#feca17;fill-rule:evenodd;isolation:isolate;opacity:0.3;}.cls-2{fill:#010101;}.cls-3{fill:#f3f4f6;}.cls-4{fill:#f7bab1;}.cls-5{fill:#f3f3f6;}.cls-6{fill:#fff;}</style></defs><g id="Capa_2" data-name="Capa 2"><g id="Capa_1-2" data-name="Capa 1"><path class="cls-1" d="M59.33,0c26.05-.19,50.85,14.3,59.25,39.68,8.76,26.45,0,56.17-22.16,72.33-21.42,15.62-50,11.74-71.11-4.34C4.86,92.08-5.19,65.44,2.68,40.54S33.9.19,59.33,0Z"/><path class="cls-2" d="M86.15,65.51C82,55.17,84.86,46.06,91.38,37.87c3.1-3.9,5.92-4.29,12.31-1.32,5.15,2.39,7.4,7,7.74,12.4.43,7-1.8,13.21-7.34,17.88a12.68,12.68,0,0,1-9.87,3c-1.4-.16-1.77.11-2,1.67-.56,3.55,1.33,5.67,3.59,7.78a2,2,0,0,0,1.58.37c2.09,0,4.19,0,6.28,0,1.94,0,3,1,3,2.91q.06,6.75,0,13.51c0,2.07-.93,3-3,3.11-2.6.07-5.2,0-7.8,0-2.27,0-3.53,1.29-3.54,3.61,0,2.54,0,5.07,0,7.61,0,2.13-1,3.07-3.17,3.08q-6.66,0-13.32,0c-2.12,0-3-1-3.07-3.16,0-3.11,0-3.15-3-3.46-5-.52-9.88.14-14.8.38-6,.31-11.89.14-17.63-1.74-10-3.29-13.47-10.36-9.95-20.27a40.14,40.14,0,0,1,7.5-12.64,21.69,21.69,0,0,0,3.06-4.72,46.59,46.59,0,0,1,6.16-10c5.31-6.23,12.31-8.23,20.21-8.06A17.59,17.59,0,0,1,76,54.9a50.92,50.92,0,0,1,7.68,9.39C84.34,65.3,85.06,65.87,86.15,65.51Z"/><path class="cls-2" d="M88.71,30.69a20.16,20.16,0,0,1-5.79,14.36A13.86,13.86,0,0,1,73,49.12c-3.94.09-8-3-9.77-7.5-2.23-5.69-1.6-11.41.15-17.07a27.5,27.5,0,0,1,2-4.49c3.41-6.58,6.83-7.69,13.89-5.16,6.67,2.39,8.9,8.08,9.44,14.66C88.73,29.93,88.71,30.31,88.71,30.69Z"/><path class="cls-2" d="M58.73,34a16,16,0,0,1-.83,6.52c-3.5,10.28-13.34,10.79-20.08,4.59-6.1-5.61-7.68-16.83-3.53-24,3.47-6,9-7.74,14.74-7.21,1.77.16,3,1.45,4.16,2.78,2.88,3.44,4.27,7.53,5.09,11.85A20.6,20.6,0,0,1,58.73,34Z"/><path class="cls-2" d="M38.64,57.94a12.22,12.22,0,0,1-3.9,9.94C30.89,71.4,26.42,71.19,22,69.39,12.84,65.67,7.81,52.77,11.87,43.8,14.05,39,18.13,36.66,23,35.58c2.15-.48,4.1.67,5.7,2.05C34.89,43,38,49.88,38.64,57.94Z"/><path class="cls-3" d="M78.05,65.56c-1.5,0-2.69.08-3.86,0s-1.52.22-1.49,1.44c.09,3.74,0,7.48.07,11.22,0,1.36-.41,1.7-1.71,1.67-3.68-.08-7.36,0-11-.06-1.26,0-1.75.23-1.73,1.64.09,5.51.08,11,0,16.54,0,1.34.47,1.53,1.62,1.51,3.74-.07,7.48,0,11.22,0,1,0,1.71-.06,1.63,1.33s-1,.95-1.59.88c-5.33-.61-10.63,0-15.94.31s-10.74.3-16-1.33c-7-2.19-9.32-6.56-6.85-13.5a35.16,35.16,0,0,1,7.22-11.91,11.83,11.83,0,0,0,2-3,65.68,65.68,0,0,1,4.84-8.77c7.57-11,20.88-11.55,29.2-1.2C76.44,63.27,77.13,64.3,78.05,65.56Z"/><path class="cls-4" d="M94,94.14c-1.65,0-3.31.11-4.95,0s-2.29.26-2.2,2.09c.17,3.55,0,7.1.07,10.65,0,1.06-.26,1.42-1.35,1.37-2.09-.09-4.18-.08-6.27,0-1.05,0-1.25-.34-1.24-1.3,0-3.67-.09-7.35.07-11,.08-1.79-.54-2.1-2.14-2.05-3.54.11-7.1,0-10.65.06-1.14,0-1.58-.27-1.52-1.48.09-2,.08-4.06,0-6.08,0-1.11.35-1.39,1.41-1.37C69,85,72.8,85,76.6,85c1.19,0,1.49-.34,1.47-1.5-.08-3.74,0-7.48,0-11.22,0-1.07.28-1.43,1.37-1.38,2.09.08,4.19.09,6.28,0,1.15,0,1.35.43,1.34,1.44C87,76.16,87,80,87,83.77c0,1.21.27,1.64,1.57,1.61,3.61-.1,7.23,0,10.84-.07,1.41,0,2.06.23,1.91,1.83a32.41,32.41,0,0,0,0,5.12c.1,1.42-.22,2.06-1.81,1.92C97.64,94,95.79,94.14,94,94.14Z"/><path class="cls-5" d="M106.3,51c-.29,5-1.64,9.6-6.11,12.38-5.43,3.38-9.92,1.67-10.54-4.84-.64-6.7,1.78-12.65,6.22-17.73a1.59,1.59,0,0,1,1.61-.51C103.3,41,106.5,45.66,106.3,51Z"/><path class="cls-6" d="M67.06,34.38c.38-5.31,1.48-10,4.3-14.12a2.16,2.16,0,0,1,2.12-1.16,9.34,9.34,0,0,1,9.17,7.09,15.42,15.42,0,0,1-2.57,14,6.88,6.88,0,0,1-1.17,1.24c-4.92,4-9.4,3.24-11.21-3.31A31.19,31.19,0,0,1,67.06,34.38Z"/><path class="cls-5" d="M37.29,31.06c.08-3.55.71-6.46,2.85-8.86a9.58,9.58,0,0,1,7.64-3.11,1.4,1.4,0,0,1,1.29.62c3.8,6,5.5,12.5,3.45,19.48-1.38,4.69-5.23,6-9.37,3.31C38.85,39.75,37.5,35.44,37.29,31.06Z"/><path class="cls-5" d="M33.35,57.56a20.86,20.86,0,0,1-.27,2.67c-1.15,4.56-4.7,6.15-9.22,4-4-1.86-6.19-5.23-7.4-9.32a12.91,12.91,0,0,1-.39-7.08c1-3.84,3.53-6,7.22-7a1.73,1.73,0,0,1,1.73.46A23.74,23.74,0,0,1,33.35,57.56Z"/></g></g></svg>