<svg xmlns="http://www.w3.org/2000/svg" viewBox="0 0 121.93 121.93"><defs><style>.cls-1{fill:#feca17;fill-rule:evenodd;isolation:isolate;opacity:0.3;}.cls-2{fill:#2d2625;}.cls-3{fill:#f7bab1;}.cls-4{fill:#fff;}</style></defs><g id="Capa_2" data-name="Capa 2"><g id="Capa_1-2" data-name="Capa 1"><path class="cls-1" d="M59.33,0c26.05-.19,50.85,14.3,59.25,39.68,8.76,26.45,0,56.17-22.16,72.33-21.42,15.62-50,11.74-71.11-4.34C4.86,92.08-5.19,65.44,2.68,40.54S33.9.19,59.33,0Z"/><path class="cls-2" d="M62.61,20.66a23,23,0,1,1-23,22.91A23,23,0,0,1,62.61,20.66Z"/><path class="cls-2" d="M64.23,85.27c-.08,1.52.2,3.31-.3,5.06a8.21,8.21,0,0,1-9.19,5.85.59.59,0,0,0-.76.35A34.42,34.42,0,0,1,49.9,102a2.39,2.39,0,0,0-.57,2,8.88,8.88,0,0,1-6.78,10.13,7.89,7.89,0,0,1-4.31,0,6.86,6.86,0,0,0-3.68,0,9,9,0,0,1-11.24-10.4,1.3,1.3,0,0,0-.2-1.16,42.18,42.18,0,0,1-4.5-6.07c-.21-.39-.5-.28-.82-.23a8.23,8.23,0,0,1-9.42-7.74c-.09-2.38,0-4.76,0-7.15a1.18,1.18,0,0,1,.49-1c3.5-3.06,7-6.16,10.51-9.19a6.33,6.33,0,0,1,8-.32A5.81,5.81,0,0,0,33,72a14.61,14.61,0,0,1,8.4.39,1.8,1.8,0,0,0,1.85-.25,21.84,21.84,0,0,1,2.12-1.43,6.54,6.54,0,0,1,7.92.5c3.51,3,7,6.09,10.43,9.12a1.24,1.24,0,0,1,.49,1.09C64.21,82.6,64.23,83.81,64.23,85.27Z"/><path class="cls-2" d="M62.6,9.11A37.06,37.06,0,0,1,85.11,75.52c-.5.39-.79.46-1.17-.12s-1.32-1.29-1.35-2c0-.48,1-1,1.63-1.5A33.25,33.25,0,0,0,95.84,51a33.61,33.61,0,0,0-65.5-14.36A33.15,33.15,0,0,0,34.45,64.6c.78,1.25.79,1.24-.38,2-1.61,1.07-1.62,1.07-2.67-.6a36.33,36.33,0,0,1-5.52-24.22A37,37,0,0,1,62.6,9.11Z"/><path class="cls-2" d="M75.93,74.93c3.25,2.6,6.31,5,9.33,7.5a2.93,2.93,0,0,0,2,.7q6.51,0,13,0a2.93,2.93,0,0,0,2-.71c3-2.47,6.08-4.9,9.21-7.42a37.41,37.41,0,0,1,.47,4.81c.53,6.76,1.08,13.53,1.49,20.3a10.48,10.48,0,0,1-3.3,8,20.3,20.3,0,0,1-11.48,5.79,25.1,25.1,0,0,1-17.3-2.68c-3.66-2.06-6.4-4.93-7.21-9.25a22.58,22.58,0,0,1,.16-5.63c.29-4.54.66-9.07,1-13.6C75.53,80.22,75.73,77.68,75.93,74.93Z"/><path class="cls-2" d="M18.57,34.86c-.42.86-.84,1.76-1.32,2.63-.14.26-.38,0-.55-.08l-5.16-2.48c-.47-.22-.58-.43-.33-1,1.13-2.37,1.1-2.38,3.49-1.22L18,34.39C18.25,34.49,18.55,34.49,18.57,34.86Z"/><path class="cls-2" d="M13,55.63a.32.32,0,0,1-.4-.16l-1.2-2.36c-.22-.41.12-.47.36-.59,1.69-.88,3.39-1.76,5.07-2.65.4-.21.63-.24.89.24,1.31,2.37,1.33,2.36-1.1,3.63l-3.21,1.65Z"/><path class="cls-2" d="M110.51,34.36c0,.35-.29.41-.49.51-1.69.88-3.39,1.73-5.07,2.63-.44.24-.64.14-.81-.26a.66.66,0,0,0-.09-.19c-1.17-2.22-1.17-2.22,1-3.39,1.13-.59,2.27-1.15,3.38-1.76.48-.26.72-.23,1,.31C109.74,33,110.15,33.66,110.51,34.36Z"/><path class="cls-2" d="M110.85,53c-.39.8-.78,1.68-1.24,2.51-.15.27-.43,0-.65,0-1.72-.84-3.45-1.66-5.17-2.49-.09,0-.25-.08-.27-.15-.25-1,.56-1.62.83-2.43.1-.28.19-.77.72-.51,1.85.88,3.69,1.78,5.54,2.67C110.78,52.63,110.92,52.71,110.85,53Z"/><path class="cls-2" d="M110.13,45.32h-.85c-.76,0-1.93.35-2.2-.15-.4-.71-.14-1.77-.18-2.69,0-.48.29-.47.63-.48,1.77,0,3.54,0,5.31-.07.5,0,.66.14.69.65.17,2.71.18,2.71-2.55,2.73h-.85Z"/><path class="cls-2" d="M11.6,45.35c-.78,0-1.56-.05-2.34,0s-.91-.23-.91-.95c0-2.34,0-2.34,2.36-2.38,1.13,0,2.26,0,3.4-.08.58,0,.87,0,.88.77,0,2.57.07,2.57-2.54,2.6H11.6Z"/><path class="cls-3" d="M71.88,26.34c-1,.92-2,1.75-2.86,2.66C62,36.06,54.91,43.14,47.82,50.19c-.73.72-.72,1,.24,1.39,1.49.65,2.91,1.47,4.35,2.23A7.83,7.83,0,0,0,61.6,52.7c3-2.81,5.8-5.77,8.71-8.64.4-.39.33-.65-.06-.92-.76-.52-.49-.91,0-1.44,2.93-2.89,5.84-5.82,8.76-8.74,5.3,7.54,3.85,18.95-3.2,25.26a19.69,19.69,0,1,1-4-31.88Z"/><path class="cls-4" d="M52.5,50.09l7.63-7.5c.63-.62,1.27-1.23,1.87-1.88.38-.41.64-.55,1.09-.05.79.86,1.63,1.68,2.48,2.49.35.33.4.55,0,.92-2.05,2-4,4.08-6.11,6.07a4.52,4.52,0,0,1-5.49.74C53.55,50.66,53.12,50.42,52.5,50.09Z"/><path class="cls-4" d="M71.7,35.57c-.09.1-.23.26-.38.41-1.2,1.21-2.42,2.4-3.6,3.63-.39.4-.61.39-1,0-1.82-1.76-1.83-1.74-.09-3.5L69,33.69a2.05,2.05,0,0,1,.48-.41A9.48,9.48,0,0,1,71.7,35.57Z"/><path class="cls-4" d="M77,30.15a7.54,7.54,0,0,1-.5.61c-.62.63-1.27,1.23-1.86,1.88-.39.43-.64.35-1,0-1.84-1.75-1.85-1.74-.09-3.48,1.11-1.09,1.11-1.09,2.27,0C76.22,29.46,76.63,29.79,77,30.15Z"/><path class="cls-4" d="M47.79,85A29.88,29.88,0,0,0,48,89.84a7.77,7.77,0,0,0,2.55,4.32c.59.5.53.84.16,1.41-1,1.61-2.33,3-3.53,4.53A4.52,4.52,0,0,0,46,104.38a5.15,5.15,0,0,1-2,5.41,5.81,5.81,0,0,1-5.62,1c-.5-.15-.44-.47-.44-.81,0-1.56,0-3.13,0-4.69,0-.6.15-.88.77-.77s.88-.19.88-.87c0-2.4,0-2.4-2.35-2.4-1.21,0-2.42,0-3.62,0-.45,0-.66.11-.62.59a9.27,9.27,0,0,1,0,1.49c-.06.79,0,1.44,1.07,1.21.43-.09.54.17.53.56,0,1.67,0,3.34,0,5a.61.61,0,0,1-.48.7,5.69,5.69,0,0,1-5.69-1.07,5.28,5.28,0,0,1-1.81-5.56,3.85,3.85,0,0,0-.78-3.48c-1.27-1.7-2.75-3.25-3.91-5-.39-.6-.47-.93.15-1.48a7.59,7.59,0,0,0,2.67-5.92c0-2.53,0-5,0-7.57,0-.58-.12-.78-.75-.79-2.53,0-2.53-.06-2.53,2.51,0,1.85,0,3.69,0,5.54a4.87,4.87,0,0,1-9.73.5c-.16-1.91,0-3.83-.09-5.75a1.1,1.1,0,0,1,.53-.87c3-2.6,5.92-5.2,8.9-7.79,1.6-1.38,2.86-1.45,4.63-.28,1.12.74,2.26,1.46,3.36,2.25a1.23,1.23,0,0,0,1.36.12,15.26,15.26,0,0,1,11.61,0,1.34,1.34,0,0,0,1.46-.15c1.19-.84,2.41-1.64,3.63-2.43a3.09,3.09,0,0,1,3.94.19c3.15,2.71,6.26,5.46,9.39,8.19a1.12,1.12,0,0,1,.4.93c0,1.67,0,3.34,0,5A5.07,5.07,0,0,1,56,93a4.94,4.94,0,0,1-4.9-5.21c0-2.31,0-4.62,0-6.93,0-.7-.11-1-.9-1-2.4,0-2.4,0-2.4,2.44Z"/><path class="cls-4" d="M78.78,81.49c2,1.57,3.78,3,5.56,4.44a2,2,0,0,0,1.44.51h16a2.07,2.07,0,0,0,1.44-.52c1.78-1.46,3.59-2.88,5.51-4.41.18,2.1.37,4,.51,6,.3,3.9.51,7.8.87,11.69s-1.59,6.57-4.61,8.63c-6.48,4.41-17.43,4.29-23.82-.23-2.35-1.67-4.15-3.77-4.28-6.77a44.88,44.88,0,0,1,.35-5.53C78.08,90.78,78.43,86.25,78.78,81.49Z"/><path class="cls-2" d="M42.94,89.69c1.64,0,1.64,0,1.64,2,0,1.34,0,1.34-2.1,1.34-1.27,0-1.27,0-1.27-2.18C41.21,89.69,41.21,89.69,42.94,89.69Z"/><path class="cls-2" d="M29.79,89.69c1.63,0,1.63,0,1.63,2.1,0,1.24,0,1.24-2.08,1.24-1.21,0-1.21,0-1.21-2.12C28.13,89.69,28.13,89.69,29.79,89.69Z"/><path class="cls-2" d="M93.81,99.54h2.44c.18,0,.44-.07.52,0,.73.84.16,1.86.33,2.78.1.52-.27.6-.66.54-1-.18-1,.32-1,1.12,0,2.16,0,2.1-2.19,2.18-1,0-1.26-.27-1.13-1.17,0-.35,0-.71,0-1.06.1-.77-.09-1.24-1-1.07-.07,0-.17,0-.21,0-1-.78-.18-1.82-.41-2.71-.1-.4.07-.65.56-.64C92,99.56,92.89,99.54,93.81,99.54Z"/><path class="cls-2" d="M102,94.63c0,1.7,0,1.7-1.72,1.7s-1.62,0-1.62-2c0-1.34,0-1.34,2-1.34C102,93,102,93,102,94.63Z"/><path class="cls-2" d="M85.57,94.54c0-1.58,0-1.58,1.54-1.58,1.74,0,1.74,0,1.74,1.7s0,1.67-1.65,1.67S85.57,96.33,85.57,94.54Z"/></g></g></svg>