<svg xmlns="http://www.w3.org/2000/svg" viewBox="0 0 121.93 121.93"><defs><style>.cls-1{fill:#feca17;fill-rule:evenodd;}.cls-1,.cls-7{isolation:isolate;opacity:0.3;}.cls-2{fill:#f7bab1;}.cls-3{fill:#2d2625;}.cls-4{fill:#95a5a5;}.cls-5{fill:#7f8c8d;}.cls-6{fill:#ecf0f1;}.cls-7,.cls-8{fill:#fff;}</style></defs><g id="Capa_2" data-name="Capa 2"><g id="Capa_1-2" data-name="Capa 1"><path class="cls-1" d="M59.33,0c26.05-.19,50.85,14.3,59.25,39.68,8.76,26.45,0,56.17-22.16,72.33-21.42,15.62-50,11.74-71.11-4.34C4.86,92.08-5.19,65.44,2.68,40.54S33.9.19,59.33,0Z"/><path class="cls-2" d="M37.63,39.32a26.83,26.83,0,0,1-1.56-10.47,25.73,25.73,0,0,1,21.59-24c.32,0,.72,0,1-.32h.58a1.49,1.49,0,0,0,1.17,0H63.1a1.46,1.46,0,0,0,1.16,0h.39a14.36,14.36,0,0,0,3,.67A25.64,25.64,0,0,1,87.21,26.9a26.26,26.26,0,0,1-1.36,12.39c.1.52-.34.73-.61,1-1.87,1.88-3.72,3.78-5.63,5.62-2.68,2.58-5,5.47-7.87,7.89a3.23,3.23,0,0,1-1.25.89,25.46,25.46,0,0,1-17.53,0A25.73,25.73,0,0,1,38.59,41.86C38.19,41.06,37.46,40.35,37.63,39.32Z"/><path class="cls-3" d="M56,83.81c-2.56,2.57-5.1,5.15-7.66,7.72q-4.56,4.57-9.14,9.13c-4.5,4.48-10.69,4.47-15.2,0-.62-.62-1.24-1.23-1.85-1.86-4.24-4.3-4.43-10.3-.28-14.7C25.12,80.61,28.53,77.23,32,74a10.13,10.13,0,0,1,13.85.12c.71.66,1.37,1.36,2.07,2,.23.21.39.54.78.5C51.17,79,53.55,81.41,56,83.81Z"/><path class="cls-3" d="M74.81,76.64a11.05,11.05,0,0,0,2.33-2.15,10.35,10.35,0,0,1,12.32-2,12.28,12.28,0,0,1,2.83,2.18c3,3,6,5.94,8.92,8.93,4.57,4.6,4.57,10.77,0,15.35a21.72,21.72,0,0,1-4.06,3.59,9.9,9.9,0,0,1-11.83-1c-6-5.74-11.74-11.69-17.6-17.55-.06-.34.17-.54.37-.74,2.15-2.17,4.32-4.32,6.47-6.48A.5.5,0,0,1,74.81,76.64Z"/><path class="cls-4" d="M70.74,54.45c5-4.67,9.63-9.73,14.55-14.5.2-.2.37-.44.56-.66l.09,0c.55-.34.9-1.28,1.43-1.16s1.06.88,1.57,1.37a8.15,8.15,0,0,1,2.7,4.28,6.75,6.75,0,0,1-2,6.45L69.79,70c-.26.26-.64.46-.67.9-1.11,1.24-2.33,2.36-3.49,3.53a.89.89,0,0,1-.59.3,1.42,1.42,0,0,1-.87-.56c-2-1.95-3.91-3.9-5.86-5.86a1.5,1.5,0,0,1-.57-.86c0-.46.4-.71.68-1,1-1.06,2.12-2,3-3.16,2.76-2.53,5.31-5.26,8-7.88A4.22,4.22,0,0,1,70.74,54.45Z"/><path class="cls-5" d="M61.55,63.38c0,.56-.53.79-.84,1.14-.93,1-2,1.88-2.87,3a12.6,12.6,0,0,1-3.43,3.28L34.18,50.53c-3.36-3.36-3.38-7.3,0-10.66l.34-.34c.51-.5,1-1.27,1.55-1.41s1,.9,1.6,1.2A25.89,25.89,0,0,0,51.84,54c.32.14.63.33.94.49a3.72,3.72,0,0,1,1.08.82c2.35,2.36,4.72,4.71,7.06,7.08C61.2,62.65,61.63,62.87,61.55,63.38Z"/><path class="cls-3" d="M54.41,70.79l3.43-3.28L65,74.69a.35.35,0,0,1-.06.36,20.05,20.05,0,0,1-3.22,3.09L56,83.81a1.2,1.2,0,0,1-.81-.48l-6-6c-.21-.2-.44-.39-.44-.72l5-5C54,71.33,54.18,71.05,54.41,70.79Z"/><path class="cls-3" d="M61.76,78.14,65,74.69l3.24-3.15c.24-.24.44-.55.84-.6l5.69,5.7a2.25,2.25,0,0,1-.71.9L67.71,84Z"/><path class="cls-6" d="M71,18.33c-.83-.15-1.74.08-2.63-.14A1.57,1.57,0,0,1,67,16.44a1.53,1.53,0,0,1,1.6-1.6q3.43-.06,6.89,0a1.56,1.56,0,0,1,1.65,1.75q0,3.36,0,6.7a1.67,1.67,0,0,1-1.61,1.82,1.77,1.77,0,0,1-1.72-1.84c0-.77,0-1.54,0-2.31-.49-.06-.64.29-.84.49-1.64,1.62-3.23,3.28-4.9,4.86-.55.52-.49.85-.11,1.42a13.59,13.59,0,0,1-1.81,17.55,13.09,13.09,0,0,1-13.8,3.17,13,13,0,0,1-9.22-10.54,13.63,13.63,0,0,1,11.3-16,13.19,13.19,0,0,1,9.86,2.22c.58.39.89.37,1.36-.14C67.37,22.06,69.19,20.22,71,18.33Z"/><path class="cls-7" d="M61.55,63.38l-8.07-8.12c-.25-.25-.47-.52-.7-.79,1.68.33,3.28.93,5,1.19a25.36,25.36,0,0,0,11.95-1,2.4,2.4,0,0,1,1-.24L62.07,63.2A.54.54,0,0,1,61.55,63.38Z"/><path class="cls-8" d="M31.38,96.44a5,5,0,0,1-4.47-3,4.7,4.7,0,0,1,.82-5.5c2.46-2.61,5-5.16,7.62-7.61a5,5,0,0,1,7.09.27,5.11,5.11,0,0,1-.06,7.17c-2.35,2.41-4.75,4.77-7.13,7.15A5.3,5.3,0,0,1,31.38,96.44Z"/><path class="cls-8" d="M92.2,96.43A5.24,5.24,0,0,1,88.32,95c-2.53-2.51-5.06-5-7.53-7.57a5,5,0,0,1-.06-7A5,5,0,0,1,87.8,80q4.13,3.84,8,8a4.72,4.72,0,0,1,.77,5.51A5,5,0,0,1,92.2,96.43Z"/><path class="cls-2" d="M46.36,35.4A10.26,10.26,0,1,1,56.59,45.69,10.15,10.15,0,0,1,46.36,35.4Z"/></g></g></svg>